# xmcd
#
# Track frame offsets:
#	150
#	13277
#	31125
#	49352
#	65895
#	84910
#	103113
#	121640
#	141713
#
# Disc length: 2117 seconds
#
# Revision: 1
# Processed by: cddbd v1.5PL3 Copyright (c) Steve Scherf et al.
# Submitted via: audiograbber 1.83.01
#
DISCID=7f084309
DTITLE=Spice Girls - Spice Girls
DYEAR=1900
DGENRE=Pop
TTITLE0=Wannabe
TTITLE1=Say you'll be there
TTITLE2=Love thing
TTITLE3=Love thing
TTITLE4=Last time lover
TTITLE5=Who do you think you are
TTITLE6=Something kinda funny
TTITLE7=Naked
TTITLE8=If u can't dance
EXTD=
EXTT0=
EXTT1=
EXTT2=
EXTT3=
EXTT4=
EXTT5=
EXTT6=
EXTT7=
EXTT8=
PLAYORDER=
